<?xml version="1.0" encoding="UTF-8" standalone="no"?>
<svg
   width="64"
   height="64"
   viewBox="0 0 64 64"
   version="1.1"
   id="svg19"
   sodipodi:docname="sunflower-ground-pickup.svg"
   inkscape:version="1.4.4 (dcaf3e7, 2026-05-05)"
   xmlns:inkscape="http://www.inkscape.org/namespaces/inkscape"
   xmlns:sodipodi="http://sodipodi.sourceforge.net/DTD/sodipodi-0.dtd"
   xmlns="http://www.w3.org/2000/svg"
   xmlns:svg="http://www.w3.org/2000/svg"
   xmlns:rdf="http://www.w3.org/1999/02/22-rdf-syntax-ns#"
   xmlns:cc="http://creativecommons.org/ns#"
   xmlns:dc="http://purl.org/dc/elements/1.1/">
  <sodipodi:namedview
     id="namedview19"
     pagecolor="#ffffff"
     bordercolor="#000000"
     borderopacity="0.25"
     inkscape:showpageshadow="2"
     inkscape:pageopacity="0.0"
     inkscape:pagecheckerboard="0"
     inkscape:deskcolor="#d1d1d1"
     inkscape:zoom="12.609375"
     inkscape:cx="32"
     inkscape:cy="32"
     inkscape:window-width="1920"
     inkscape:window-height="1009"
     inkscape:window-x="-8"
     inkscape:window-y="-8"
     inkscape:window-maximized="1"
     inkscape:current-layer="svg19" />
  <title
     id="title1">Sunflower Ground Pickup</title>
  <defs
     id="defs8">
    <radialGradient
       id="seedFace"
       cx="50%"
       cy="48%"
       r="55%">
      <stop
         offset="0"
         stop-color="#6a3f18"
         id="stop1" />
      <stop
         offset="0.68"
         stop-color="#3a2210"
         id="stop2" />
      <stop
         offset="1"
         stop-color="#1c1009"
         id="stop3" />
    </radialGradient>
    <linearGradient
       id="petalGold"
       x1="0"
       y1="0"
       x2="1"
       y2="1">
      <stop
         offset="0"
         stop-color="#ffe66a"
         id="stop4" />
      <stop
         offset="0.55"
         stop-color="#f2b72c"
         id="stop5" />
      <stop
         offset="1"
         stop-color="#c97b16"
         id="stop6" />
    </linearGradient>
    <linearGradient
       id="leafGreen"
       x1="0"
       y1="0"
       x2="1"
       y2="1">
      <stop
         offset="0"
         stop-color="#6bd65b"
         id="stop7" />
      <stop
         offset="1"
         stop-color="#1f7f38"
         id="stop8" />
    </linearGradient>
  </defs>
  <ellipse
     cx="34"
     cy="56"
     rx="18"
     ry="5"
     fill="#101008"
     opacity="0.42"
     id="ellipse8" />
  <path
     d="M33 29 C31 38 31 47 33 55"
     fill="none"
     stroke="#2b8c3e"
     stroke-width="5"
     stroke-linecap="round"
     id="path8" />
  <path
     d="M28 43 C18 39 13 43 11 50 C20 52 26 50 31 45"
     fill="url(#leafGreen)"
     stroke="#125123"
     stroke-width="2"
     id="path9" />
  <path
     d="M36 39 C46 35 53 38 55 46 C46 49 40 47 34 42"
     fill="url(#leafGreen)"
     stroke="#125123"
     stroke-width="2"
     id="path10" />
  <path
     d="M17 25 L7 21 L18 17 L10 9 L23 12 L24 2 L31 11 L38 2 L39 12 L52 9 L44 17 L55 21 L45 25 L55 31 L43 33 L48 44 L37 38 L31 50 L25 38 L14 44 L19 33 L7 31 Z"
     fill="url(#petalGold)"
     stroke="#8c570d"
     stroke-width="2"
     stroke-linejoin="round"
     id="path11" />
  <circle
     cx="31"
     cy="25"
     r="13"
     fill="url(#seedFace)"
     stroke="#1a0d06"
     stroke-width="2"
     id="circle11" />
  <g
     fill="#0c0704"
     opacity="0.82"
     id="g19">
    <circle
       cx="26"
       cy="20"
       r="1.3"
       id="circle12" />
    <circle
       cx="31"
       cy="19"
       r="1.2"
       id="circle13" />
    <circle
       cx="36"
       cy="21"
       r="1.3"
       id="circle14" />
    <circle
       cx="24"
       cy="25"
       r="1.1"
       id="circle15" />
    <circle
       cx="30"
       cy="25"
       r="1.2"
       id="circle16" />
    <circle
       cx="36"
       cy="26"
       r="1.1"
       id="circle17" />
    <circle
       cx="27"
       cy="31"
       r="1.2"
       id="circle18" />
    <circle
       cx="33"
       cy="31"
       r="1.3"
       id="circle19" />
  </g>
  <path
     d="M23 14 C27 12 33 12 38 15"
     fill="none"
     stroke="#fff1a3"
     stroke-width="2"
     stroke-linecap="round"
     opacity="0.55"
     id="path19" />
  <metadata
     id="metadata19">
    <rdf:RDF>
      <cc:Work
         rdf:about="">
        <dc:title>Sunflower Ground Pickup</dc:title>
      </cc:Work>
    </rdf:RDF>
  </metadata>
  <path
     style="fill:#000000;stroke-width:0.0793061"
     d="m 30.514007,50.797014 c -0.222658,-0.135758 -0.630722,-0.904432 -3.07322,-5.789047 -1.54906,-3.097876 -2.848389,-5.632502 -2.887399,-5.632502 -0.03901,0 -2.359844,1.24907 -5.157409,2.775712 -4.422116,2.413166 -5.130448,2.775713 -5.423089,2.775713 -0.185134,0 -0.416126,-0.0557 -0.513318,-0.123773 -0.225064,-0.157642 -0.413723,-0.520684 -0.413723,-0.79614 0,-0.11772 1.020623,-2.459464 2.26805,-5.203876 1.247429,-2.744413 2.246793,-5.0111 2.22081,-5.037082 -0.02598,-0.02598 -2.453339,-0.448476 -5.394124,-0.938871 C 9.1998005,32.336753 6.7209629,31.912433 6.6320574,31.884215 6.3223367,31.785913 6.0669145,31.38387 6.0669145,30.994658 c 0,-0.300351 0.04194,-0.399567 0.2577447,-0.60974 0.1417596,-0.138059 2.1045849,-1.356594 4.3618338,-2.707855 2.257249,-1.351262 4.103656,-2.474884 4.103125,-2.496939 -5.3e-4,-0.02205 -1.878969,-0.789338 -4.174309,-1.705074 -4.6146391,-1.84103 -4.5483945,-1.804802 -4.5483945,-2.487418 0,-0.26521 0.051061,-0.383895 0.2577447,-0.5991 0.2290316,-0.238472 0.7878338,-0.460269 5.0161088,-1.990967 2.617101,-0.947429 4.788792,-1.740545 4.82598,-1.76248 0.03719,-0.02193 -1.541993,-1.652052 -3.509293,-3.622484 L 9.0805452,9.4299971 V 9.0542156 c 0,-0.5741465 0.3813728,-1.0046493 0.8899963,-1.0046493 0.1012655,0 2.8774975,0.621822 6.1694055,1.3818266 3.291909,0.7600051 5.991537,1.3755781 5.999175,1.3679401 0.0076,-0.0076 0.215869,-2.0302026 0.462737,-4.4945897 0.309304,-3.0876458 0.48725,-4.561923 0.572356,-4.7419419 0.211992,-0.4484068 0.805503,-0.62550762 1.27582,-0.3806984 0.121307,0.063143 1.572283,1.8658692 3.346743,4.1580737 1.722925,2.2256315 3.158053,4.0490753 3.189175,4.0520977 0.03112,0.00302 1.485955,-1.8314662 3.232963,-4.0766412 1.747008,-2.2451749 3.244849,-4.1187808 3.328536,-4.1635687 0.08369,-0.044788 0.300824,-0.081433 0.482526,-0.081433 0.268829,0 0.379726,0.049357 0.595335,0.2649659 0.145732,0.1457313 0.284181,0.3509358 0.307666,0.4560099 0.02348,0.1050742 0.238757,2.1677812 0.478382,4.5837933 0.239626,2.4160121 0.445823,4.4028904 0.458217,4.4152844 0.01239,0.01239 2.715914,-0.599288 6.007823,-1.3592926 3.291908,-0.7600046 6.06814,-1.3818266 6.169405,-1.3818266 0.637657,0 1.098223,0.7882159 0.802407,1.3732433 -0.04818,0.095274 -1.661594,1.7511059 -3.585376,3.6796279 l -3.497786,3.506403 0.274348,0.110872 c 0.15089,0.06098 2.325741,0.855303 4.833,1.765165 3.131639,1.136443 4.628909,1.717073 4.783088,1.854844 0.290474,0.259563 0.367512,0.740269 0.177517,1.10768 -0.171359,0.331371 -0.324806,0.400752 -4.939332,2.233301 -2.017349,0.801142 -3.667906,1.475124 -3.667906,1.497738 0,0.02261 1.894016,1.177508 4.208925,2.566432 4.41858,2.651108 4.514149,2.720206 4.514149,3.263801 0,0.294926 -0.22801,0.680338 -0.482754,0.816011 -0.1056,0.05624 -2.609671,0.505419 -5.564602,0.998175 -2.954932,0.492753 -5.395467,0.918781 -5.423411,0.946725 -0.02794,0.02794 0.97142,2.301907 2.220809,5.05325 1.24939,2.751342 2.271617,5.075395 2.271617,5.16456 0,0.277794 -0.249228,0.703352 -0.482592,0.82403 -0.512494,0.26502 -0.50513,0.268355 -5.876576,-2.660247 -2.800065,-1.526642 -5.119888,-2.775712 -5.155163,-2.775712 -0.03527,0 -1.331547,2.534626 -2.880607,5.632502 -3.029543,6.058612 -2.96172,5.945591 -3.567887,5.945591 -0.130855,0 -0.353455,-0.07044 -0.494667,-0.156544 z m 2.950281,-7.841921 2.376309,-4.759834 0.518363,-0.216196 c 0.2851,-0.118907 0.718187,-0.315099 0.962416,-0.435981 l 0.444053,-0.219787 3.993304,2.177285 c 2.196316,1.197505 4.020529,2.167794 4.053804,2.156195 0.03328,-0.0116 -0.759072,-1.822497 -1.760776,-4.02422 -1.001703,-2.201724 -1.821278,-4.042521 -1.821278,-4.090663 0,-0.04814 0.216189,-0.412378 0.480421,-0.809416 0.361745,-0.543563 0.533162,-0.732757 0.693928,-0.765888 0.117429,-0.0242 2.051426,-0.347837 4.29777,-0.719192 4.828312,-0.798195 4.499065,-0.732638 4.354384,-0.867014 -0.06133,-0.05696 -1.672847,-1.038221 -3.58115,-2.180575 l -3.46964,-2.077006 9.24e-4,-1.086183 9.24e-4,-1.086184 3.573905,-1.425053 c 1.965647,-0.783779 3.586768,-1.44587 3.602492,-1.471311 0.01572,-0.02544 -1.885031,-0.740303 -4.223901,-1.588578 -2.338869,-0.848276 -4.360626,-1.614263 -4.492794,-1.702193 -0.288523,-0.191953 -0.484903,-0.656281 -0.408898,-0.966811 0.03631,-0.148342 1.000876,-1.170345 2.919923,-3.093787 1.576137,-1.579749 2.844317,-2.893656 2.818178,-2.919795 -0.02614,-0.02614 -2.225052,0.454485 -4.886474,1.068055 -2.66142,0.61357 -4.90439,1.115449 -4.984376,1.115285 -0.247419,-5.04e-4 -0.657306,-0.303097 -0.777707,-0.57413 -0.0718,-0.16162 -0.252851,-1.668147 -0.483762,-4.0253254 -0.202963,-2.0718711 -0.382839,-3.7819083 -0.399726,-3.8000827 -0.01689,-0.018174 -0.04271,-0.018174 -0.05739,0 -0.01467,0.018174 -1.142498,1.4703632 -2.506272,3.2270862 l -2.479589,3.1940419 -1.237965,-0.0218 -1.237965,-0.0218 -2.496101,-3.2071142 C 25.87677,5.973211 24.741528,4.5659982 24.726866,4.6099842 c -0.01466,0.043986 -0.199423,1.8022461 -0.41058,3.9072444 -0.275501,2.7464474 -0.414964,3.8571294 -0.493846,3.9330054 -0.06046,0.05815 -0.316593,0.191778 -0.569188,0.29694 l -0.459263,0.191205 -4.735284,-1.094832 c -2.604407,-0.602156 -4.788633,-1.095448 -4.853837,-1.096202 -0.0652,-7.55e-4 1.173284,1.292308 2.752195,2.873473 1.57891,1.581165 2.908533,2.976465 2.954719,3.100666 0.112694,0.303055 -0.02154,0.789995 -0.272105,0.987091 -0.10543,0.08293 -2.13877,0.858274 -4.518534,1.722984 -2.379764,0.86471 -4.3263748,1.592822 -4.3258025,1.618028 5.724e-4,0.0252 1.6154425,0.689918 3.5885995,1.477139 l 3.587559,1.431311 0.01061,1.081109 0.01061,1.08111 -3.612156,2.165643 c -3.3327,1.998098 -3.5942817,2.170391 -3.3811203,2.226996 0.1270693,0.03374 2.0689533,0.364728 4.3152983,0.735522 2.246344,0.370793 4.178305,0.693524 4.293246,0.717178 0.15637,0.03218 0.331073,0.228605 0.693928,0.780213 0.26672,0.405463 0.484945,0.758328 0.484945,0.784143 0,0.02582 -0.820818,1.853323 -1.82404,4.061127 -1.003222,2.207804 -1.824039,4.029956 -1.824039,4.049226 0,0.01927 0.02951,0.03504 0.06558,0.03504 0.03607,0 1.861522,-0.979211 4.056567,-2.176023 l 3.99099,-2.176023 0.444053,0.219787 c 0.244229,0.120882 0.677189,0.31702 0.962133,0.435861 l 0.518081,0.216075 2.398139,4.797061 c 1.318977,2.638385 2.424131,4.780364 2.455897,4.759955 0.03177,-0.02041 1.127097,-2.179031 2.434066,-4.796941 z"
     id="path20" />
  <path
     style="fill:#000000;stroke-width:0.0793061"
     d="m 32.277503,57.347186 c -0.632625,-0.198292 -1.173642,-0.663851 -1.4849,-1.277793 -0.237944,-0.469334 -0.813122,-3.152493 -1.128289,-5.263377 -0.11116,-0.744509 -0.20134,-1.381549 -0.200402,-1.415646 9.39e-4,-0.0341 0.170455,0.255331 0.376704,0.643172 0.284103,0.534242 0.442277,0.742053 0.652569,0.857354 0.364905,0.200075 0.885146,0.152672 1.163317,-0.105998 0.110973,-0.103193 0.706308,-1.186881 1.322968,-2.408194 1.045639,-2.070922 1.122598,-2.199192 1.141968,-1.903346 0.128519,1.962951 0.536605,4.674303 1.059842,7.041663 l 0.329375,1.490239 -0.12678,0.513746 c -0.351963,1.426253 -1.754758,2.251834 -3.106372,1.82818 z"
     id="path21" />
  <path
     style="fill:#000000;stroke-width:0.0793061"
     d="m 15.594438,51.659749 c -1.273797,-0.09161 -2.52971,-0.271863 -4.134711,-0.593443 -0.763321,-0.152941 -1.447162,-0.29568 -1.5196466,-0.317198 -0.1212768,-0.036 -0.1191877,-0.08474 0.026186,-0.610968 0.5447586,-1.971915 1.5681366,-4.236764 2.4609116,-5.446272 l 0.495437,-0.671205 0.0738,0.257331 c 0.04059,0.141532 0.197919,0.366307 0.349619,0.499501 0.246261,0.216221 0.319315,0.238762 0.681744,0.210362 0.223259,-0.01749 0.477177,-0.06341 0.564261,-0.102027 0.101347,-0.04495 0.01233,0.113934 -0.24732,0.44143 -0.537415,0.677836 -0.901891,1.258095 -1.343592,2.139049 -0.301776,0.60188 -0.74834,1.661888 -0.74834,1.776333 0,0.05363 1.368507,0.276363 2.458488,0.400143 1.401316,0.159136 3.985642,0.159266 5.210313,2.63e-4 2.595161,-0.336939 4.950226,-1.203118 7.042475,-2.590181 0.479802,-0.318086 0.91605,-0.606622 0.969439,-0.641191 0.06793,-0.04398 0.227811,0.197833 0.532561,0.805486 l 0.435487,0.868338 -0.849784,0.553212 c -3.65621,2.380205 -7.70729,3.362635 -12.457329,3.021037 z"
     id="path22" />
  <path
     style="fill:#000000;stroke-width:0.0793061"
     d="m 45.006196,48.253665 c -1.029111,-0.12484 -2.52887,-0.469975 -3.674393,-0.845575 -1.424172,-0.466967 -3.623781,-1.567511 -5.105024,-2.554228 l -1.121577,-0.74713 0.430713,-0.858818 c 0.236892,-0.47235 0.446091,-0.858819 0.464885,-0.858819 0.0188,0 0.309353,0.197434 0.645686,0.438742 1.975342,1.417243 4.216586,2.511039 6.251632,3.050989 2.42758,0.644099 5.103306,0.723033 7.835081,0.231133 0.787054,-0.141721 2.989495,-0.673628 3.053252,-0.737385 0.05477,-0.05477 -0.400636,-1.218402 -0.74863,-1.912847 -1.237628,-2.469775 -3.398832,-4.270722 -5.83276,-4.860482 l -0.560447,-0.1358 -0.411889,-0.872367 c -0.226539,-0.479802 -0.438182,-0.956408 -0.470316,-1.059125 -0.05679,-0.181526 -0.04876,-0.185222 0.286608,-0.1319 0.769388,0.12233 1.564015,0.303402 2.166006,0.493571 3.229685,1.020257 5.826452,3.585941 7.146986,7.061435 0.203892,0.536621 0.747037,2.425056 0.747037,2.597338 0,0.103996 -1.883166,0.720827 -3.251549,1.065046 -1.999215,0.502905 -3.199973,0.657475 -5.313507,0.683995 -1.068649,0.01341 -2.210657,-0.0081 -2.537794,-0.04777 z"
     id="path23" />
  <path
     style="fill:#000000;stroke-width:0.0793061"
     d="m 26.23605,43.383486 c -0.409859,-0.17827 -1.902317,-0.577209 -2.840759,-0.759345 -1.08246,-0.210088 -3.013259,-0.292255 -3.837337,-0.163303 -0.322184,0.05042 -0.597322,0.08013 -0.611418,0.06604 -0.01409,-0.0141 0.77992,-0.465336 1.764479,-1.002757 2.034348,-1.110447 1.742128,-1.047971 3.358378,-0.718016 1.442725,0.29453 1.270572,0.161075 1.945086,1.507854 0.326535,0.651984 0.566712,1.184028 0.533725,1.18232 -0.03299,-0.0017 -0.173456,-0.05246 -0.312154,-0.11279 z"
     id="path24" />
  <path
     style="fill:#000000;stroke-width:0.0793061"
     d="M 25.538916,43.124585 C 25.060413,42.97839 24.221751,42.763926 23.675223,42.647998 22.776102,42.457279 22.514551,42.436817 20.926862,42.432984 l -1.754674,-0.0042 0.684042,-0.386398 c 1.681278,-0.949712 2.621177,-1.397988 2.931155,-1.397988 0.495586,0 2.255122,0.385052 2.471599,0.540878 0.184458,0.132778 1.264557,2.117104 1.18545,2.177873 -0.01953,0.015 -0.427015,-0.09233 -0.905518,-0.238528 z"
     id="path25" />
</svg>
