<svg xmlns="http://www.w3.org/2000/svg" viewBox="0 0 142 124" shape-rendering="crispEdges">
  <title>Codex Living Computer Tower</title>
  <rect width="142" height="124" fill="none"/>

  <rect x="17" y="0" width="88" height="40" fill="#050508"/>
  <rect x="21" y="4" width="80" height="32" fill="#0b1018"/>
  <rect x="25" y="8" width="72" height="24" fill="#111a28"/>
  <rect x="25" y="8" width="72" height="4" fill="#f7f4ff" opacity="0.14"/>

  <rect x="50" y="10" width="22" height="4" fill="#2b143d"/>
  <rect x="42" y="14" width="38" height="4" fill="#4b1d86"/>
  <rect x="38" y="18" width="46" height="6" fill="#7c3cff"/>
  <rect x="42" y="24" width="38" height="4" fill="#4b1d86"/>
  <rect x="50" y="28" width="22" height="4" fill="#2b143d"/>
  <rect x="56" y="16" width="12" height="10" fill="#f7f4ff"/>
  <rect x="60" y="18" width="8" height="8" fill="#1a1028"/>
  <rect x="64" y="14" width="5" height="5" fill="#ffffff"/>
  <rect x="36" y="18" width="4" height="6" fill="#b65cff" opacity="0.72"/>
  <rect x="82" y="18" width="4" height="6" fill="#b65cff" opacity="0.72"/>
  <rect x="31" y="22" width="4" height="4" fill="#42a5ff" opacity="0.55"/>
  <rect x="88" y="22" width="4" height="4" fill="#42a5ff" opacity="0.55"/>

  <rect x="0" y="42" width="142" height="82" fill="#050508"/>
  <rect x="4" y="46" width="134" height="74" fill="#07080c"/>
  <rect x="4" y="46" width="134" height="24" fill="#171b24"/>
  <rect x="8" y="50" width="126" height="3" fill="#f7f4ff" opacity="0.1"/>

  <rect x="17" y="50" width="5" height="66" fill="#42a5ff" opacity="0.78"/>
  <rect x="29" y="54" width="5" height="58" fill="#1b6fd6" opacity="0.42"/>
  <rect x="42" y="50" width="5" height="66" fill="#b65cff" opacity="0.78"/>
  <rect x="55" y="58" width="5" height="46" fill="#7c3cff" opacity="0.36"/>

  <rect x="70" y="54" width="46" height="6" fill="#f7f4ff" opacity="0.16"/>
  <rect x="70" y="68" width="58" height="6" fill="#42a5ff" opacity="0.28"/>
  <rect x="70" y="82" width="38" height="6" fill="#b65cff" opacity="0.36"/>
  <rect x="70" y="96" width="18" height="4" fill="#f8d56b" opacity="0.72"/>
  <rect x="93" y="96" width="8" height="4" fill="#42a5ff" opacity="0.66"/>
  <rect x="106" y="96" width="8" height="4" fill="#b65cff" opacity="0.66"/>

  <rect x="58" y="92" width="34" height="18" fill="#050508"/>
  <rect x="62" y="96" width="26" height="10" fill="#101a28"/>
  <rect x="66" y="98" width="5" height="5" fill="#42a5ff"/>
  <rect x="79" y="98" width="5" height="5" fill="#b65cff"/>
  <rect x="70" y="104" width="10" height="3" fill="#f7f4ff" opacity="0.82"/>
  <rect x="67" y="101" width="3" height="3" fill="#f7f4ff" opacity="0.64"/>
  <rect x="80" y="101" width="3" height="3" fill="#f7f4ff" opacity="0.64"/>

  <rect x="94" y="106" width="34" height="10" fill="#050508"/>
  <rect x="99" y="106" width="7" height="10" fill="#07080c"/>
  <rect x="111" y="106" width="5" height="10" fill="#42a5ff"/>
  <rect x="123" y="106" width="5" height="10" fill="#b65cff"/>

  <rect x="7" y="51" width="3" height="64" fill="#2a2630"/>
  <rect x="132" y="51" width="3" height="64" fill="#000000" opacity="0.36"/>
  <rect x="8" y="116" width="124" height="4" fill="#050508" opacity="0.84"/>

  <rect x="109" y="7" width="4" height="4" fill="#42a5ff" opacity="0.76"/>
  <rect x="118" y="15" width="4" height="4" fill="#b65cff" opacity="0.76"/>
  <rect x="108" y="29" width="4" height="4" fill="#f8d56b" opacity="0.86"/>
  <rect x="126" y="28" width="2" height="2" fill="#b65cff" opacity="0.6"/>
  <rect x="10" y="28" width="3" height="3" fill="#42a5ff" opacity="0.54"/>
  <rect x="20" y="22" width="3" height="3" fill="#b65cff" opacity="0.5"/>

  <path d="M101 8h8v4h-8zM109 12h8v4h-8zM117 16h8v4h-8z" fill="#42a5ff" opacity="0.26"/>
  <path d="M104 34h8v4h-8zM112 30h8v4h-8zM120 26h8v4h-8z" fill="#b65cff" opacity="0.24"/>
  <path d="M2 33h10v4H2zM12 29h8v4h-8zM20 25h6v4h-6z" fill="#42a5ff" opacity="0.18"/>
  <path d="M4 39h8v4H4zM12 43h10v4H12z" fill="#b65cff" opacity="0.18"/>
</svg>
