<svg xmlns="http://www.w3.org/2000/svg" viewBox="0 0 48 48" shape-rendering="crispEdges">
  <title>Little Wing</title>
  <rect width="48" height="48" fill="none"/>
  <rect x="16" y="2" width="18" height="4" fill="#08080d"/>
  <rect x="12" y="6" width="6" height="4" fill="#08080d"/>
  <rect x="18" y="6" width="18" height="4" fill="#f8d56b"/>
  <rect x="36" y="6" width="4" height="4" fill="#08080d"/>
  <rect x="8" y="10" width="4" height="4" fill="#08080d"/>
  <rect x="12" y="10" width="8" height="4" fill="#ffe85c"/>
  <rect x="20" y="10" width="12" height="4" fill="#fff27a"/>
  <rect x="32" y="10" width="6" height="4" fill="#f8d56b"/>
  <rect x="38" y="10" width="4" height="4" fill="#08080d"/>
  <rect x="42" y="10" width="4" height="4" fill="#ead28a"/>
  <rect x="6" y="14" width="4" height="4" fill="#08080d"/>
  <rect x="10" y="14" width="8" height="4" fill="#f8d56b"/>
  <rect x="18" y="14" width="14" height="4" fill="#fff27a"/>
  <rect x="32" y="14" width="4" height="4" fill="#ffe85c"/>
  <rect x="36" y="14" width="4" height="4" fill="#08080d"/>
  <rect x="40" y="14" width="6" height="4" fill="#e8c46a"/>
  <rect x="4" y="18" width="4" height="4" fill="#08080d"/>
  <rect x="8" y="18" width="8" height="4" fill="#1b6fd6"/>
  <rect x="16" y="18" width="8" height="4" fill="#ffe85c"/>
  <rect x="24" y="18" width="10" height="4" fill="#fff27a"/>
  <rect x="34" y="18" width="4" height="4" fill="#ffe85c"/>
  <rect x="38" y="18" width="4" height="4" fill="#08080d"/>
  <rect x="6" y="22" width="4" height="4" fill="#08080d"/>
  <rect x="10" y="22" width="8" height="4" fill="#1b6fd6"/>
  <rect x="18" y="22" width="8" height="4" fill="#42a5ff"/>
  <rect x="26" y="22" width="10" height="4" fill="#ffe85c"/>
  <rect x="36" y="22" width="4" height="4" fill="#08080d"/>
  <rect x="8" y="26" width="4" height="4" fill="#08080d"/>
  <rect x="12" y="26" width="8" height="4" fill="#1252a8"/>
  <rect x="20" y="26" width="10" height="4" fill="#1b6fd6"/>
  <rect x="30" y="26" width="8" height="4" fill="#f8d56b"/>
  <rect x="38" y="26" width="4" height="4" fill="#08080d"/>
  <rect x="10" y="30" width="4" height="4" fill="#08080d"/>
  <rect x="14" y="30" width="10" height="4" fill="#0f3f82"/>
  <rect x="24" y="30" width="8" height="4" fill="#1252a8"/>
  <rect x="32" y="30" width="6" height="4" fill="#08080d"/>
  <rect x="14" y="34" width="4" height="4" fill="#08080d"/>
  <rect x="18" y="34" width="14" height="4" fill="#08080d"/>
  <rect x="20" y="38" width="4" height="4" fill="#f8d56b"/>
  <rect x="30" y="38" width="4" height="4" fill="#f8d56b"/>
  <rect x="16" y="42" width="8" height="4" fill="#08080d"/>
  <rect x="30" y="42" width="8" height="4" fill="#08080d"/>
  <rect x="32" y="12" width="2" height="2" fill="#08080d"/>
  <rect x="18" y="8" width="8" height="2" fill="#fff9a8"/>
  <rect x="26" y="18" width="6" height="2" fill="#fff9a8"/>
  <rect x="14" y="20" width="8" height="2" fill="#65bdff"/>
</svg>
