<svg xmlns="http://www.w3.org/2000/svg" viewBox="0 0 32 36" shape-rendering="crispEdges">
  <title>Little Wing</title>
  <rect width="32" height="36" fill="none"/>
  <rect x="12" y="0" width="4" height="4" fill="#0b0b10"/>
  <rect x="16" y="0" width="4" height="4" fill="#0b0b10"/>
  <rect x="20" y="0" width="4" height="4" fill="#0b0b10"/>
  <rect x="8" y="4" width="4" height="4" fill="#0b0b10"/>
  <rect x="12" y="4" width="4" height="4" fill="#ffe85c"/>
  <rect x="16" y="4" width="4" height="4" fill="#fff27a"/>
  <rect x="20" y="4" width="4" height="4" fill="#ffe85c"/>
  <rect x="24" y="4" width="4" height="4" fill="#0b0b10"/>
  <rect x="4" y="8" width="4" height="4" fill="#0b0b10"/>
  <rect x="8" y="8" width="4" height="4" fill="#ffe85c"/>
  <rect x="12" y="8" width="4" height="4" fill="#fff27a"/>
  <rect x="16" y="8" width="4" height="4" fill="#ffe85c"/>
  <rect x="20" y="8" width="4" height="4" fill="#0b0b10"/>
  <rect x="24" y="8" width="4" height="4" fill="#f8d56b"/>
  <rect x="28" y="8" width="4" height="4" fill="#0b0b10"/>
  <rect x="0" y="12" width="4" height="4" fill="#0b0b10"/>
  <rect x="4" y="12" width="4" height="4" fill="#1b6fd6"/>
  <rect x="8" y="12" width="4" height="4" fill="#ffe85c"/>
  <rect x="12" y="12" width="4" height="4" fill="#fff27a"/>
  <rect x="16" y="12" width="4" height="4" fill="#ffe85c"/>
  <rect x="20" y="12" width="4" height="4" fill="#0b0b10"/>
  <rect x="24" y="12" width="4" height="4" fill="#050508"/>
  <rect x="28" y="12" width="4" height="4" fill="#0b0b10"/>
  <rect x="0" y="16" width="4" height="4" fill="#0b0b10"/>
  <rect x="4" y="16" width="4" height="4" fill="#1b6fd6"/>
  <rect x="8" y="16" width="4" height="4" fill="#42a5ff"/>
  <rect x="12" y="16" width="4" height="4" fill="#ffe85c"/>
  <rect x="16" y="16" width="4" height="4" fill="#fff27a"/>
  <rect x="20" y="16" width="4" height="4" fill="#ffe85c"/>
  <rect x="24" y="16" width="4" height="4" fill="#0b0b10"/>
  <rect x="4" y="20" width="4" height="4" fill="#0b0b10"/>
  <rect x="8" y="20" width="4" height="4" fill="#1b6fd6"/>
  <rect x="12" y="20" width="4" height="4" fill="#42a5ff"/>
  <rect x="16" y="20" width="4" height="4" fill="#ffe85c"/>
  <rect x="20" y="20" width="4" height="4" fill="#0b0b10"/>
  <rect x="8" y="24" width="4" height="4" fill="#0b0b10"/>
  <rect x="12" y="24" width="4" height="4" fill="#0b0b10"/>
  <rect x="16" y="24" width="4" height="4" fill="#0b0b10"/>
  <rect x="12" y="28" width="4" height="4" fill="#f8d56b"/>
  <rect x="20" y="28" width="4" height="4" fill="#f8d56b"/>
  <rect x="8" y="32" width="4" height="4" fill="#0b0b10"/>
  <rect x="12" y="32" width="4" height="4" fill="#0b0b10"/>
  <rect x="20" y="32" width="4" height="4" fill="#0b0b10"/>
  <rect x="24" y="32" width="4" height="4" fill="#0b0b10"/>
</svg>
