<?xml version="1.0" encoding="UTF-8" standalone="no"?>
<svg
   viewBox="0 0 70.517105 48"
   shape-rendering="crispEdges"
   version="1.1"
   id="svg47"
   sodipodi:docname="little-wing.svg"
   inkscape:version="1.4.4 (dcaf3e7, 2026-05-05)"
   width="70.517105"
   height="48"
   xmlns:inkscape="http://www.inkscape.org/namespaces/inkscape"
   xmlns:sodipodi="http://sodipodi.sourceforge.net/DTD/sodipodi-0.dtd"
   xmlns="http://www.w3.org/2000/svg"
   xmlns:svg="http://www.w3.org/2000/svg">
  <defs
     id="defs47" />
  <sodipodi:namedview
     id="namedview47"
     pagecolor="#ffffff"
     bordercolor="#000000"
     borderopacity="0.25"
     inkscape:showpageshadow="2"
     inkscape:pageopacity="0.0"
     inkscape:pagecheckerboard="0"
     inkscape:deskcolor="#d1d1d1"
     inkscape:zoom="8.40625"
     inkscape:cx="31.583643"
     inkscape:cy="16.237918"
     inkscape:window-width="1920"
     inkscape:window-height="1009"
     inkscape:window-x="-8"
     inkscape:window-y="-8"
     inkscape:window-maximized="1"
     inkscape:current-layer="svg47" />
  <title
     id="title1">Little Wing</title>
  <rect
     width="48"
     height="48"
     fill="none"
     id="rect1"
     x="22.517103"
     y="0" />
  <rect
     x="38.517105"
     y="2"
     width="18"
     height="4"
     fill="#08080d"
     id="rect2" />
  <rect
     x="34.517105"
     y="6"
     width="6"
     height="4"
     fill="#08080d"
     id="rect3" />
  <rect
     x="40.517105"
     y="6"
     width="18"
     height="4"
     fill="#f8d56b"
     id="rect4" />
  <rect
     x="58.517105"
     y="6"
     width="4"
     height="4"
     fill="#08080d"
     id="rect5" />
  <rect
     x="30.517103"
     y="10"
     width="4"
     height="4"
     fill="#08080d"
     id="rect6" />
  <rect
     x="34.517105"
     y="10"
     width="8"
     height="4"
     fill="#ffe85c"
     id="rect7" />
  <rect
     x="42.517105"
     y="10"
     width="12"
     height="4"
     fill="#fff27a"
     id="rect8" />
  <rect
     x="54.517105"
     y="10"
     width="6"
     height="4"
     fill="#f8d56b"
     id="rect9" />
  <rect
     x="60.517105"
     y="10"
     width="4"
     height="4"
     fill="#08080d"
     id="rect10" />
  <rect
     x="63.446472"
     y="10"
     width="2.7509294"
     height="4"
     fill="#ead28a"
     id="rect11"
     style="stroke-width:0.829294;fill:#00ffff" />
  <rect
     x="28.517103"
     y="14"
     width="4"
     height="4"
     fill="#08080d"
     id="rect12" />
  <rect
     x="32.517105"
     y="14"
     width="8"
     height="4"
     fill="#f8d56b"
     id="rect13" />
  <rect
     x="40.517105"
     y="14"
     width="14"
     height="4"
     fill="#fff27a"
     id="rect14" />
  <rect
     x="54.517105"
     y="14"
     width="4"
     height="4"
     fill="#ffe85c"
     id="rect15" />
  <rect
     x="58.517105"
     y="14"
     width="4"
     height="4"
     fill="#08080d"
     id="rect16" />
  <rect
     x="62.517105"
     y="14"
     width="6"
     height="4"
     fill="#e8c46a"
     id="rect17" />
  <rect
     x="26.517103"
     y="18"
     width="4"
     height="4"
     fill="#08080d"
     id="rect18" />
  <rect
     x="30.517103"
     y="18"
     width="8"
     height="4"
     fill="#1b6fd6"
     id="rect19" />
  <rect
     x="38.517105"
     y="18"
     width="8"
     height="4"
     fill="#ffe85c"
     id="rect20" />
  <rect
     x="46.517105"
     y="18"
     width="10"
     height="4"
     fill="#fff27a"
     id="rect21" />
  <rect
     x="56.517105"
     y="18"
     width="4"
     height="4"
     fill="#ffe85c"
     id="rect22" />
  <rect
     x="60.517105"
     y="18"
     width="4"
     height="4"
     fill="#08080d"
     id="rect23" />
  <rect
     x="28.517103"
     y="22"
     width="4"
     height="4"
     fill="#08080d"
     id="rect24" />
  <rect
     x="32.517105"
     y="22"
     width="8"
     height="4"
     fill="#1b6fd6"
     id="rect25" />
  <rect
     x="40.517105"
     y="22"
     width="8"
     height="4"
     fill="#42a5ff"
     id="rect26"
     style="fill:#0000ff" />
  <rect
     x="48.517105"
     y="22"
     width="10"
     height="4"
     fill="#ffe85c"
     id="rect27"
     style="fill:#1eef00;fill-opacity:1" />
  <rect
     x="58.517105"
     y="22"
     width="4"
     height="4"
     fill="#08080d"
     id="rect28"
     style="fill:#00ff00" />
  <rect
     x="30.517103"
     y="26"
     width="4"
     height="4"
     fill="#08080d"
     id="rect29" />
  <rect
     x="34.517105"
     y="26"
     width="8"
     height="4"
     fill="#1252a8"
     id="rect30" />
  <rect
     x="42.517105"
     y="26"
     width="10"
     height="4"
     fill="#1b6fd6"
     id="rect31"
     style="fill:#0000ff" />
  <rect
     x="52.517105"
     y="26"
     width="8"
     height="4"
     fill="#f8d56b"
     id="rect32"
     style="fill:#23f52b;fill-opacity:1" />
  <rect
     x="60.517105"
     y="26"
     width="0.074349441"
     height="4"
     fill="#08080d"
     id="rect33"
     style="stroke-width:0.136335" />
  <rect
     x="32.517105"
     y="30"
     width="4"
     height="4"
     fill="#08080d"
     id="rect34" />
  <rect
     x="36.517105"
     y="30"
     width="10"
     height="4"
     fill="#0f3f82"
     id="rect35"
     style="fill:#0000ff" />
  <rect
     x="46.517105"
     y="30"
     width="8"
     height="4"
     fill="#1252a8"
     id="rect36"
     style="fill:#0000ff" />
  <rect
     x="54.517105"
     y="30"
     width="6"
     height="4"
     fill="#08080d"
     id="rect37"
     style="fill:#00ff00" />
  <rect
     x="36.517105"
     y="34"
     width="4"
     height="4"
     fill="#08080d"
     id="rect38" />
  <rect
     x="40.517105"
     y="34"
     width="14"
     height="4"
     fill="#08080d"
     id="rect39"
     style="fill:#000000" />
  <rect
     x="42.517105"
     y="38"
     width="4"
     height="4"
     fill="#f8d56b"
     id="rect40" />
  <rect
     x="52.517105"
     y="38"
     width="4"
     height="4"
     fill="#f8d56b"
     id="rect41" />
  <rect
     x="38.517105"
     y="42"
     width="8"
     height="4"
     fill="#08080d"
     id="rect42" />
  <rect
     x="52.517105"
     y="42"
     width="8"
     height="4"
     fill="#08080d"
     id="rect43" />
  <rect
     x="54.517105"
     y="12"
     width="2"
     height="2"
     fill="#08080d"
     id="rect44" />
  <rect
     x="40.517105"
     y="8"
     width="8"
     height="2"
     fill="#fff9a8"
     id="rect45" />
  <rect
     x="48.517105"
     y="18"
     width="6"
     height="2"
     fill="#fff9a8"
     id="rect46" />
  <rect
     x="36.517105"
     y="20"
     width="8"
     height="2"
     fill="#65bdff"
     id="rect47" />
  <rect
     x="27.517103"
     y="25.237919"
     width="6.9739776"
     height="3.7620819"
     fill="#08080d"
     id="rect29-5"
     style="stroke-width:1.28054" />
  <rect
     x="23.364687"
     y="22"
     width="13.635688"
     height="4"
     fill="#08080d"
     id="rect29-1"
     style="fill:#0000ff;stroke-width:1.84632" />
  <rect
     x="8.7215652"
     y="25"
     width="31.657991"
     height="4.9516726"
     fill="#08080d"
     id="rect29-11"
     style="fill:#0000ff;stroke-width:3.1301" />
  <rect
     x="20.636063"
     y="25.869888"
     width="28.802971"
     height="6.3791819"
     fill="#08080d"
     id="rect29-11-9"
     style="fill:#0000ff;stroke-width:3.38877" />
  <rect
     x="23.636063"
     y="32.18959"
     width="14.171003"
     height="2.6914501"
     fill="#08080d"
     id="rect29-2"
     style="opacity:1;stroke-width:1.54395" />
  <rect
     x="-34.417366"
     y="41.579903"
     width="22.884998"
     height="7.5638471"
     fill="#08080d"
     id="rect29-2-8"
     style="stroke-width:3.28917"
     transform="matrix(0.99999426,0.00338967,0.82773573,0.56111814,0,0)"
     inkscape:transform-center-x="0.48305822"
     inkscape:transform-center-y="0.56072581" />
  <rect
     x="63.067291"
     y="18"
     width="2.0371749"
     height="4.118959"
     fill="#ead28a"
     id="rect11-6"
     style="stroke-width:0.724179" />
  <rect
     style="fill:#000000"
     id="rect48-1"
     width="9.7546482"
     height="0"
     x="31.92565"
     y="13.832713" />
  <ellipse
     style="fill:#ffff00;stroke-width:0.954869"
     id="path1"
     cx="27.003719"
     cy="24.981413"
     rx="18.438662"
     ry="0.35687733" />
  <ellipse
     style="fill:#ffff00;stroke-width:0.497616"
     id="path2"
     cx="31.643122"
     cy="27.776953"
     rx="15.464684"
     ry="0.17843871" />
  <ellipse
     style="fill:#ffff00;stroke-width:0.730081"
     id="path3"
     cx="35.687733"
     cy="30.453531"
     rx="13.44238"
     ry="0.35687733" />
  <ellipse
     style="fill:#1a1a1a"
     id="path4"
     cx="37.888477"
     cy="14.215613"
     rx="7.5539036"
     ry="0.17843866" />
  <ellipse
     style="fill:#1a1a1a;stroke-width:0.932861"
     id="path5"
     cx="38.185875"
     cy="11.360595"
     rx="6.7806692"
     ry="0.17843866" />
  <ellipse
     style="fill:#1a1a1a;stroke-width:0.832053"
     id="path6"
     ry="0.17843866"
     rx="4.8178439"
     cy="7.4349442"
     cx="41.457253" />
</svg>
