<svg xmlns="http://www.w3.org/2000/svg" viewBox="0 0 42 54" shape-rendering="crispEdges">
  <title>Old Dilly</title>
  <rect width="42" height="54" fill="none"/>
  <rect x="12" y="0" width="8" height="8" fill="#06100b"/>
  <rect x="20" y="0" width="8" height="8" fill="#06100b"/>
  <rect x="4" y="8" width="8" height="8" fill="#06100b"/>
  <rect x="12" y="8" width="8" height="8" fill="#d8bf62"/>
  <rect x="20" y="8" width="8" height="8" fill="#ece2bc"/>
  <rect x="28" y="8" width="8" height="8" fill="#06100b"/>
  <rect x="0" y="16" width="8" height="8" fill="#06100b"/>
  <rect x="8" y="16" width="8" height="8" fill="#7a5230"/>
  <rect x="16" y="16" width="8" height="8" fill="#2a7a3c"/>
  <rect x="24" y="16" width="8" height="8" fill="#7a5230"/>
  <rect x="32" y="16" width="8" height="8" fill="#06100b"/>
  <rect x="8" y="24" width="8" height="8" fill="#06100b"/>
  <rect x="16" y="24" width="8" height="8" fill="#318b46"/>
  <rect x="24" y="24" width="8" height="8" fill="#06100b"/>
  <rect x="8" y="32" width="8" height="8" fill="#06100b"/>
  <rect x="16" y="32" width="8" height="8" fill="#5c3a21"/>
  <rect x="24" y="32" width="8" height="8" fill="#06100b"/>
  <rect x="0" y="40" width="8" height="8" fill="#06100b"/>
  <rect x="12" y="40" width="8" height="8" fill="#2a7a3c"/>
  <rect x="28" y="40" width="8" height="8" fill="#06100b"/>
  <rect x="12" y="48" width="8" height="6" fill="#3b2414"/>
  <rect x="24" y="48" width="8" height="6" fill="#3b2414"/>
  <rect x="32" y="10" width="6" height="4" fill="#f8d56b"/>
</svg>
