<svg xmlns="http://www.w3.org/2000/svg" width="64" height="96" viewBox="0 0 64 96" shape-rendering="crispEdges">
  <title>Old Dilly</title>
  <rect width="64" height="96" fill="none"/>
  <g transform="translate(8 20)">
    <rect x="14" y="0" width="24" height="4" fill="#06100b"/>
    <rect x="10" y="4" width="8" height="4" fill="#06100b"/>
    <rect x="18" y="4" width="20" height="4" fill="#1f6330"/>
    <rect x="38" y="4" width="8" height="4" fill="#06100b"/>
    <rect x="6" y="8" width="8" height="4" fill="#06100b"/>
    <rect x="14" y="8" width="8" height="4" fill="#2a7a3c"/>
    <rect x="22" y="8" width="12" height="4" fill="#74c365"/>
    <rect x="34" y="8" width="8" height="4" fill="#2a7a3c"/>
    <rect x="42" y="8" width="8" height="4" fill="#06100b"/>
    <rect x="18" y="12" width="20" height="4" fill="#5c3a21"/>
    <rect x="8" y="16" width="8" height="4" fill="#06100b"/>
    <rect x="16" y="16" width="8" height="4" fill="#6b3f1f"/>
    <rect x="24" y="16" width="12" height="4" fill="#c7853f"/>
    <rect x="36" y="16" width="8" height="4" fill="#6b3f1f"/>
    <rect x="44" y="16" width="4" height="4" fill="#06100b"/>
    <rect x="8" y="20" width="4" height="4" fill="#06100b"/>
    <rect x="12" y="20" width="8" height="4" fill="#6b3f1f"/>
    <rect x="20" y="20" width="8" height="4" fill="#e8cc78"/>
    <rect x="28" y="20" width="4" height="4" fill="#06100b"/>
    <rect x="32" y="20" width="8" height="4" fill="#e8cc78"/>
    <rect x="40" y="20" width="4" height="4" fill="#6b3f1f"/>
    <rect x="44" y="20" width="4" height="4" fill="#06100b"/>
    <rect x="8" y="24" width="4" height="4" fill="#06100b"/>
    <rect x="12" y="24" width="8" height="4" fill="#6b3f1f"/>
    <rect x="20" y="24" width="6" height="4" fill="#d8bf62"/>
    <rect x="26" y="24" width="4" height="4" fill="#6b3f1f"/>
    <rect x="30" y="24" width="4" height="4" fill="#6b3f1f"/>
    <rect x="34" y="24" width="6" height="4" fill="#d8bf62"/>
    <rect x="40" y="24" width="4" height="4" fill="#6b3f1f"/>
    <rect x="44" y="24" width="4" height="4" fill="#06100b"/>
    <rect x="10" y="28" width="8" height="4" fill="#06100b"/>
    <rect x="18" y="28" width="8" height="4" fill="#6b3f1f"/>
    <rect x="26" y="28" width="8" height="4" fill="#8a5528"/>
    <rect x="34" y="28" width="8" height="4" fill="#6b3f1f"/>
    <rect x="42" y="28" width="4" height="4" fill="#06100b"/>
    <rect x="8" y="32" width="4" height="4" fill="#06100b"/>
    <rect x="12" y="32" width="8" height="4" fill="#1f6330"/>
    <rect x="20" y="32" width="8" height="4" fill="#2a7a3c"/>
    <rect x="28" y="32" width="8" height="4" fill="#74c365"/>
    <rect x="36" y="32" width="8" height="4" fill="#2a7a3c"/>
    <rect x="44" y="32" width="4" height="4" fill="#06100b"/>
    <rect x="4" y="36" width="4" height="4" fill="#06100b"/>
    <rect x="8" y="36" width="8" height="4" fill="#5c3a21"/>
    <rect x="16" y="36" width="8" height="4" fill="#164823"/>
    <rect x="24" y="36" width="8" height="4" fill="#1f6330"/>
    <rect x="32" y="36" width="8" height="4" fill="#2a7a3c"/>
    <rect x="40" y="36" width="8" height="4" fill="#164823"/>
    <rect x="48" y="36" width="4" height="4" fill="#06100b"/>
    <rect x="0" y="40" width="4" height="4" fill="#06100b"/>
    <rect x="4" y="40" width="8" height="4" fill="#5c3a21"/>
    <rect x="12" y="40" width="8" height="4" fill="#164823"/>
    <rect x="20" y="40" width="8" height="4" fill="#2a7a3c"/>
    <rect x="28" y="40" width="8" height="4" fill="#318b46"/>
    <rect x="36" y="40" width="8" height="4" fill="#2a7a3c"/>
    <rect x="44" y="40" width="8" height="4" fill="#5c3a21"/>
    <rect x="52" y="40" width="4" height="4" fill="#06100b"/>
    <rect x="6" y="44" width="4" height="4" fill="#06100b"/>
    <rect x="10" y="44" width="8" height="4" fill="#5c3a21"/>
    <rect x="18" y="44" width="12" height="4" fill="#2a7a3c"/>
    <rect x="30" y="44" width="12" height="4" fill="#318b46"/>
    <rect x="42" y="44" width="8" height="4" fill="#5c3a21"/>
    <rect x="50" y="44" width="4" height="4" fill="#06100b"/>
    <rect x="10" y="48" width="4" height="4" fill="#06100b"/>
    <rect x="14" y="48" width="12" height="4" fill="#3b2414"/>
    <rect x="26" y="48" width="8" height="4" fill="#1f6330"/>
    <rect x="34" y="48" width="10" height="4" fill="#3b2414"/>
    <rect x="44" y="48" width="4" height="4" fill="#06100b"/>
    <rect x="12" y="52" width="4" height="4" fill="#06100b"/>
    <rect x="16" y="52" width="10" height="4" fill="#3b2414"/>
    <rect x="34" y="52" width="10" height="4" fill="#3b2414"/>
    <rect x="44" y="52" width="4" height="4" fill="#06100b"/>
    <rect x="14" y="56" width="10" height="6" fill="#2e1b10"/>
    <rect x="34" y="56" width="10" height="6" fill="#2e1b10"/>
    <rect x="0" y="20" width="4" height="42" fill="#3b2414"/>
    <rect x="0" y="16" width="4" height="4" fill="#9ade7e"/>
    <rect x="4" y="12" width="4" height="4" fill="#74c365"/>
    <rect x="0" y="8" width="4" height="4" fill="#2a7a3c"/>
    <rect x="48" y="18" width="4" height="4" fill="#9ade7e"/>
    <rect x="48" y="22" width="4" height="4" fill="#f8d56b"/>
    <rect x="20" y="31" width="4" height="3" fill="#b65cff"/>
    <rect x="38" y="34" width="4" height="3" fill="#42a5ff"/>
  </g>
</svg>
