<svg xmlns="http://www.w3.org/2000/svg" viewBox="0 0 72 72" shape-rendering="crispEdges">
  <title>Wing Master Cricket</title>
  <rect width="72" height="72" fill="none"/>
  <rect x="34" y="2" width="22" height="4" fill="#08080d"/>
  <rect x="30" y="6" width="8" height="4" fill="#08080d"/>
  <rect x="38" y="6" width="18" height="4" fill="#8f9995"/>
  <rect x="56" y="6" width="6" height="4" fill="#08080d"/>
  <rect x="26" y="10" width="6" height="4" fill="#08080d"/>
  <rect x="32" y="10" width="10" height="4" fill="#6f7b78"/>
  <rect x="42" y="10" width="14" height="4" fill="#c4cac5"/>
  <rect x="56" y="10" width="6" height="4" fill="#d7dad6"/>
  <rect x="62" y="10" width="4" height="4" fill="#08080d"/>
  <rect x="24" y="14" width="6" height="4" fill="#08080d"/>
  <rect x="30" y="14" width="10" height="4" fill="#6f7b78"/>
  <rect x="40" y="14" width="14" height="4" fill="#d7dad6"/>
  <rect x="54" y="14" width="6" height="4" fill="#b8bfba"/>
  <rect x="60" y="14" width="4" height="4" fill="#08080d"/>
  <rect x="64" y="14" width="6" height="4" fill="#e8d38a"/>
  <rect x="24" y="18" width="4" height="4" fill="#08080d"/>
  <rect x="28" y="18" width="10" height="4" fill="#245c31"/>
  <rect x="38" y="18" width="10" height="4" fill="#d7dad6"/>
  <rect x="48" y="18" width="8" height="4" fill="#b8bfba"/>
  <rect x="56" y="18" width="4" height="4" fill="#08080d"/>
  <rect x="60" y="18" width="8" height="4" fill="#d6b967"/>
  <rect x="22" y="22" width="4" height="4" fill="#08080d"/>
  <rect x="26" y="22" width="10" height="4" fill="#245c31"/>
  <rect x="36" y="22" width="12" height="4" fill="#2f8a3e"/>
  <rect x="48" y="22" width="10" height="4" fill="#63aa45"/>
  <rect x="58" y="22" width="6" height="4" fill="#3f8f3d"/>
  <rect x="64" y="22" width="4" height="4" fill="#08080d"/>
  <rect x="18" y="26" width="4" height="4" fill="#08080d"/>
  <rect x="22" y="26" width="10" height="4" fill="#7f1f32"/>
  <rect x="32" y="26" width="8" height="4" fill="#1d4f2b"/>
  <rect x="40" y="26" width="12" height="4" fill="#2f8a3e"/>
  <rect x="52" y="26" width="10" height="4" fill="#74c365"/>
  <rect x="62" y="26" width="6" height="4" fill="#08080d"/>
  <rect x="10" y="30" width="12" height="4" fill="#08080d"/>
  <rect x="22" y="30" width="8" height="4" fill="#9f2639"/>
  <rect x="30" y="30" width="8" height="4" fill="#c63b46"/>
  <rect x="38" y="30" width="8" height="4" fill="#1d4f2b"/>
  <rect x="46" y="30" width="10" height="4" fill="#43a047"/>
  <rect x="56" y="30" width="8" height="4" fill="#5bb14e"/>
  <rect x="64" y="30" width="4" height="4" fill="#08080d"/>
  <rect x="2" y="34" width="8" height="4" fill="#08080d"/>
  <rect x="10" y="34" width="12" height="4" fill="#7f1f32"/>
  <rect x="22" y="34" width="10" height="4" fill="#c63b46"/>
  <rect x="32" y="34" width="8" height="4" fill="#9f2639"/>
  <rect x="40" y="34" width="8" height="4" fill="#1b6f36"/>
  <rect x="48" y="34" width="10" height="4" fill="#2f8a3e"/>
  <rect x="58" y="34" width="6" height="4" fill="#1f6330"/>
  <rect x="64" y="34" width="4" height="4" fill="#08080d"/>
  <rect x="0" y="38" width="8" height="4" fill="#08080d"/>
  <rect x="8" y="38" width="10" height="4" fill="#9f2639"/>
  <rect x="18" y="38" width="12" height="4" fill="#c63b46"/>
  <rect x="30" y="38" width="8" height="4" fill="#7f1f32"/>
  <rect x="38" y="38" width="8" height="4" fill="#1b6f36"/>
  <rect x="46" y="38" width="10" height="4" fill="#2f8a3e"/>
  <rect x="56" y="38" width="6" height="4" fill="#08080d"/>
  <rect x="6" y="42" width="8" height="4" fill="#08080d"/>
  <rect x="14" y="42" width="12" height="4" fill="#7f1f32"/>
  <rect x="26" y="42" width="10" height="4" fill="#9f2639"/>
  <rect x="36" y="42" width="8" height="4" fill="#1f6330"/>
  <rect x="44" y="42" width="10" height="4" fill="#2f8a3e"/>
  <rect x="54" y="42" width="4" height="4" fill="#08080d"/>
  <rect x="14" y="46" width="8" height="4" fill="#08080d"/>
  <rect x="22" y="46" width="10" height="4" fill="#7f1f32"/>
  <rect x="32" y="46" width="8" height="4" fill="#1f6330"/>
  <rect x="40" y="46" width="10" height="4" fill="#2f8a3e"/>
  <rect x="50" y="46" width="4" height="4" fill="#08080d"/>
  <rect x="30" y="50" width="4" height="4" fill="#08080d"/>
  <rect x="34" y="50" width="10" height="4" fill="#1f6330"/>
  <rect x="44" y="50" width="4" height="4" fill="#08080d"/>
  <rect x="34" y="54" width="4" height="4" fill="#08080d"/>
  <rect x="38" y="54" width="8" height="4" fill="#2f8a3e"/>
  <rect x="46" y="54" width="4" height="4" fill="#08080d"/>
  <rect x="38" y="58" width="4" height="4" fill="#08080d"/>
  <rect x="46" y="58" width="4" height="4" fill="#08080d"/>
  <rect x="34" y="62" width="8" height="4" fill="#08080d"/>
  <rect x="46" y="62" width="8" height="4" fill="#08080d"/>
  <rect x="50" y="16" width="2" height="2" fill="#08080d"/>
  <rect x="42" y="10" width="8" height="2" fill="#eef0ea"/>
  <rect x="50" y="24" width="8" height="2" fill="#8edb6d"/>
  <rect x="36" y="26" width="8" height="2" fill="#b65cff" opacity="0.48"/>
  <rect x="18" y="32" width="14" height="2" fill="#e64e5d"/>
  <rect x="8" y="36" width="12" height="2" fill="#d44855"/>
</svg>
