<svg xmlns="http://www.w3.org/2000/svg" viewBox="0 0 46 56" shape-rendering="crispEdges">
  <title>Wing Master Cricket</title>
  <rect width="46" height="56" fill="none"/>
  <rect x="16" y="0" width="8" height="8" fill="#050508"/>
  <rect x="24" y="0" width="8" height="8" fill="#050508"/>
  <rect x="8" y="8" width="8" height="8" fill="#050508"/>
  <rect x="16" y="8" width="8" height="8" fill="#55605a"/>
  <rect x="24" y="8" width="8" height="8" fill="#d8d1f0"/>
  <rect x="32" y="8" width="8" height="8" fill="#050508"/>
  <rect x="0" y="16" width="8" height="8" fill="#050508"/>
  <rect x="8" y="16" width="8" height="8" fill="#2f5f36"/>
  <rect x="16" y="16" width="8" height="8" fill="#71a84a"/>
  <rect x="24" y="16" width="8" height="8" fill="#86bd55"/>
  <rect x="32" y="16" width="8" height="8" fill="#2f5f36"/>
  <rect x="40" y="16" width="6" height="8" fill="#050508"/>
  <rect x="8" y="24" width="8" height="8" fill="#050508"/>
  <rect x="16" y="24" width="8" height="8" fill="#2e7b3a"/>
  <rect x="24" y="24" width="8" height="8" fill="#4d9345"/>
  <rect x="32" y="24" width="8" height="8" fill="#050508"/>
  <rect x="12" y="32" width="8" height="8" fill="#050508"/>
  <rect x="20" y="32" width="8" height="8" fill="#1b6fd6"/>
  <rect x="28" y="32" width="8" height="8" fill="#050508"/>
  <rect x="8" y="40" width="8" height="8" fill="#050508"/>
  <rect x="16" y="40" width="8" height="8" fill="#2f8a3e"/>
  <rect x="24" y="40" width="8" height="8" fill="#2f8a3e"/>
  <rect x="32" y="40" width="8" height="8" fill="#050508"/>
  <rect x="0" y="48" width="8" height="8" fill="#050508"/>
  <rect x="12" y="48" width="8" height="8" fill="#8b2f3f"/>
  <rect x="28" y="48" width="8" height="8" fill="#a63e4e"/>
  <rect x="40" y="48" width="6" height="8" fill="#050508"/>
  <rect x="36" y="8" width="6" height="4" fill="#ece2bc"/>
</svg>
