<svg xmlns="http://www.w3.org/2000/svg" viewBox="0 0 72 72" shape-rendering="crispEdges">
  <title>Wing Master Cricket</title>
  <rect width="72" height="72" fill="none"/>
  <rect x="36" y="0" width="8" height="8" fill="#050508"/>
  <rect x="44" y="0" width="8" height="8" fill="#050508"/>
  <rect x="52" y="0" width="8" height="8" fill="#050508"/>
  <rect x="28" y="8" width="8" height="8" fill="#050508"/>
  <rect x="36" y="8" width="8" height="8" fill="#8f9995"/>
  <rect x="44" y="8" width="8" height="8" fill="#b8bfba"/>
  <rect x="52" y="8" width="8" height="8" fill="#d7dad6"/>
  <rect x="60" y="8" width="8" height="8" fill="#050508"/>
  <rect x="24" y="16" width="8" height="8" fill="#050508"/>
  <rect x="32" y="16" width="8" height="8" fill="#6f7b78"/>
  <rect x="40" y="16" width="8" height="8" fill="#d7dad6"/>
  <rect x="48" y="16" width="8" height="8" fill="#b8bfba"/>
  <rect x="56" y="16" width="8" height="8" fill="#050508"/>
  <rect x="64" y="16" width="8" height="8" fill="#e8d38a"/>
  <rect x="24" y="24" width="8" height="8" fill="#050508"/>
  <rect x="32" y="24" width="8" height="8" fill="#245c31"/>
  <rect x="40" y="24" width="8" height="8" fill="#2f8a3e"/>
  <rect x="48" y="24" width="8" height="8" fill="#63aa45"/>
  <rect x="56" y="24" width="8" height="8" fill="#3f8f3d"/>
  <rect x="64" y="24" width="8" height="8" fill="#050508"/>
  <rect x="0" y="32" width="8" height="8" fill="#050508"/>
  <rect x="8" y="32" width="8" height="8" fill="#7f1f32"/>
  <rect x="16" y="32" width="8" height="8" fill="#9f2639"/>
  <rect x="24" y="32" width="8" height="8" fill="#c63b46"/>
  <rect x="32" y="32" width="8" height="8" fill="#1d4f2b"/>
  <rect x="40" y="32" width="8" height="8" fill="#2f8a3e"/>
  <rect x="48" y="32" width="8" height="8" fill="#74c365"/>
  <rect x="56" y="32" width="8" height="8" fill="#5bb14e"/>
  <rect x="64" y="32" width="8" height="8" fill="#050508"/>
  <rect x="0" y="40" width="8" height="8" fill="#050508"/>
  <rect x="8" y="40" width="8" height="8" fill="#9f2639"/>
  <rect x="16" y="40" width="8" height="8" fill="#c63b46"/>
  <rect x="24" y="40" width="8" height="8" fill="#7f1f32"/>
  <rect x="32" y="40" width="8" height="8" fill="#1b6f36"/>
  <rect x="40" y="40" width="8" height="8" fill="#2f8a3e"/>
  <rect x="48" y="40" width="8" height="8" fill="#1f6330"/>
  <rect x="56" y="40" width="8" height="8" fill="#050508"/>
  <rect x="8" y="48" width="8" height="8" fill="#050508"/>
  <rect x="16" y="48" width="8" height="8" fill="#7f1f32"/>
  <rect x="24" y="48" width="8" height="8" fill="#9f2639"/>
  <rect x="32" y="48" width="8" height="8" fill="#1f6330"/>
  <rect x="40" y="48" width="8" height="8" fill="#2f8a3e"/>
  <rect x="48" y="48" width="8" height="8" fill="#050508"/>
  <rect x="32" y="56" width="8" height="8" fill="#050508"/>
  <rect x="40" y="56" width="8" height="8" fill="#2f8a3e"/>
  <rect x="48" y="56" width="8" height="8" fill="#050508"/>
  <rect x="36" y="64" width="8" height="8" fill="#050508"/>
  <rect x="48" y="64" width="8" height="8" fill="#050508"/>
  <rect x="50" y="18" width="4" height="4" fill="#050508"/>
  <rect x="28" y="28" width="8" height="8" fill="#b65cff" opacity="0.5"/>
</svg>
