<svg xmlns="http://www.w3.org/2000/svg" width="64" height="96" viewBox="0 0 64 96" shape-rendering="crispEdges">
  <title>Liz</title>
  <rect width="64" height="96" fill="none"/>
  <g transform="translate(10 24)">
    <rect x="16" y="0" width="16" height="4" fill="#06100b"/>
    <rect x="12" y="4" width="8" height="4" fill="#06100b"/>
    <rect x="20" y="4" width="16" height="4" fill="#5d3778"/>
    <rect x="36" y="4" width="4" height="4" fill="#06100b"/>
    <rect x="8" y="8" width="8" height="4" fill="#06100b"/>
    <rect x="16" y="8" width="8" height="4" fill="#7c3cff"/>
    <rect x="24" y="8" width="12" height="4" fill="#b65cff"/>
    <rect x="36" y="8" width="8" height="4" fill="#06100b"/>
    <rect x="8" y="12" width="4" height="4" fill="#06100b"/>
    <rect x="12" y="12" width="8" height="4" fill="#6b3f1f"/>
    <rect x="20" y="12" width="16" height="4" fill="#d8bf62"/>
    <rect x="36" y="12" width="4" height="4" fill="#6b3f1f"/>
    <rect x="40" y="12" width="4" height="4" fill="#06100b"/>
    <rect x="8" y="16" width="4" height="4" fill="#06100b"/>
    <rect x="12" y="16" width="8" height="4" fill="#6b3f1f"/>
    <rect x="20" y="16" width="4" height="4" fill="#06100b"/>
    <rect x="24" y="16" width="8" height="4" fill="#e8cc78"/>
    <rect x="32" y="16" width="4" height="4" fill="#06100b"/>
    <rect x="36" y="16" width="4" height="4" fill="#6b3f1f"/>
    <rect x="40" y="16" width="4" height="4" fill="#06100b"/>
    <rect x="10" y="20" width="6" height="4" fill="#06100b"/>
    <rect x="16" y="20" width="8" height="4" fill="#5d3778"/>
    <rect x="24" y="20" width="8" height="4" fill="#b65cff"/>
    <rect x="32" y="20" width="8" height="4" fill="#5d3778"/>
    <rect x="40" y="20" width="4" height="4" fill="#06100b"/>
    <rect x="8" y="24" width="8" height="4" fill="#06100b"/>
    <rect x="16" y="24" width="8" height="4" fill="#3057a8"/>
    <rect x="24" y="24" width="12" height="4" fill="#42a5ff"/>
    <rect x="36" y="24" width="8" height="4" fill="#06100b"/>
    <rect x="4" y="28" width="4" height="4" fill="#06100b"/>
    <rect x="8" y="28" width="8" height="4" fill="#7c3cff"/>
    <rect x="16" y="28" width="8" height="4" fill="#f7f4ff"/>
    <rect x="24" y="28" width="12" height="4" fill="#f7f4ff"/>
    <rect x="36" y="28" width="8" height="4" fill="#7c3cff"/>
    <rect x="44" y="28" width="4" height="4" fill="#06100b"/>
    <rect x="4" y="32" width="4" height="4" fill="#06100b"/>
    <rect x="8" y="32" width="8" height="4" fill="#b65cff"/>
    <rect x="16" y="32" width="8" height="4" fill="#f7f4ff"/>
    <rect x="24" y="32" width="4" height="4" fill="#f8d56b"/>
    <rect x="28" y="32" width="8" height="4" fill="#f7f4ff"/>
    <rect x="36" y="32" width="8" height="4" fill="#b65cff"/>
    <rect x="44" y="32" width="4" height="4" fill="#06100b"/>
    <rect x="0" y="36" width="4" height="4" fill="#06100b"/>
    <rect x="4" y="36" width="8" height="4" fill="#6b3f1f"/>
    <rect x="12" y="36" width="8" height="4" fill="#f7f4ff"/>
    <rect x="20" y="36" width="4" height="4" fill="#42a5ff"/>
    <rect x="24" y="36" width="4" height="4" fill="#b65cff"/>
    <rect x="28" y="36" width="4" height="4" fill="#f8d56b"/>
    <rect x="32" y="36" width="8" height="4" fill="#f7f4ff"/>
    <rect x="40" y="36" width="4" height="4" fill="#6b3f1f"/>
    <rect x="44" y="36" width="4" height="4" fill="#06100b"/>
    <rect x="12" y="40" width="4" height="4" fill="#06100b"/>
    <rect x="16" y="40" width="8" height="4" fill="#3057a8"/>
    <rect x="24" y="40" width="8" height="4" fill="#42a5ff"/>
    <rect x="32" y="40" width="4" height="4" fill="#3057a8"/>
    <rect x="36" y="40" width="4" height="4" fill="#06100b"/>
    <rect x="12" y="44" width="4" height="4" fill="#06100b"/>
    <rect x="16" y="44" width="8" height="4" fill="#3b2414"/>
    <rect x="28" y="44" width="8" height="4" fill="#3b2414"/>
    <rect x="36" y="44" width="4" height="4" fill="#06100b"/>
    <rect x="14" y="48" width="8" height="6" fill="#2e1b10"/>
    <rect x="30" y="48" width="8" height="6" fill="#2e1b10"/>
    <rect x="42" y="24" width="4" height="16" fill="#7a5230"/>
    <rect x="46" y="20" width="4" height="4" fill="#f7f4ff"/>
    <rect x="50" y="16" width="4" height="4" fill="#42a5ff"/>
    <rect x="0" y="30" width="4" height="4" fill="#f8d56b"/>
    <rect x="0" y="34" width="4" height="4" fill="#b65cff"/>
    <rect x="0" y="38" width="4" height="4" fill="#42a5ff"/>
  </g>
</svg>
