<svg xmlns="http://www.w3.org/2000/svg" viewBox="0 0 64 112" shape-rendering="crispEdges">
  <title>Candlewick Tower</title>
  <rect width="64" height="112" fill="none"/>
  <rect x="14" y="6" width="36" height="100" fill="#050508"/>
  <rect x="18" y="10" width="28" height="92" fill="#111827"/>
  <rect x="22" y="14" width="20" height="16" fill="#1d293d"/>
  <rect x="24" y="16" width="16" height="4" fill="#f7f4ff" opacity="0.18"/>
  <rect x="22" y="36" width="20" height="6" fill="#050508"/>
  <rect x="22" y="48" width="20" height="6" fill="#050508"/>
  <rect x="22" y="60" width="20" height="6" fill="#050508"/>
  <rect x="20" y="76" width="24" height="20" fill="#080a10"/>
  <rect x="24" y="80" width="16" height="12" fill="#2b143d"/>
  <rect x="28" y="82" width="8" height="8" fill="#b65cff"/>
  <rect x="30" y="84" width="4" height="4" fill="#f7f4ff"/>
  <rect x="18" y="98" width="28" height="4" fill="#2a2630"/>
  <rect x="10" y="102" width="44" height="6" fill="#050508"/>
  <rect x="16" y="108" width="32" height="4" fill="#050508" opacity="0.45"/>
  <rect x="48" y="22" width="4" height="12" fill="#42a5ff"/>
  <rect x="48" y="42" width="4" height="12" fill="#7c3cff"/>
  <rect x="12" y="32" width="4" height="10" fill="#f8d56b"/>
  <rect x="12" y="54" width="4" height="10" fill="#42a5ff"/>
</svg>