<?xml version="1.0" encoding="UTF-8" standalone="no"?>
<svg
   viewBox="0 0 96.446098 72"
   shape-rendering="crispEdges"
   version="1.1"
   id="svg83"
   sodipodi:docname="wing-master-cricket.svg"
   width="96.446098"
   height="72"
   inkscape:version="1.4.4 (dcaf3e7, 2026-05-05)"
   xmlns:inkscape="http://www.inkscape.org/namespaces/inkscape"
   xmlns:sodipodi="http://sodipodi.sourceforge.net/DTD/sodipodi-0.dtd"
   xmlns="http://www.w3.org/2000/svg"
   xmlns:svg="http://www.w3.org/2000/svg">
  <defs
     id="defs83" />
  <sodipodi:namedview
     id="namedview83"
     pagecolor="#ffffff"
     bordercolor="#000000"
     borderopacity="0.25"
     inkscape:showpageshadow="2"
     inkscape:pageopacity="0.0"
     inkscape:pagecheckerboard="0"
     inkscape:deskcolor="#d1d1d1"
     inkscape:zoom="11.208333"
     inkscape:cx="53.665429"
     inkscape:cy="28.862454"
     inkscape:window-width="1920"
     inkscape:window-height="1009"
     inkscape:window-x="-8"
     inkscape:window-y="-8"
     inkscape:window-maximized="1"
     inkscape:current-layer="svg83" />
  <title
     id="title1">Wing Master Cricket</title>
  <rect
     width="72"
     height="72"
     fill="none"
     id="rect1"
     x="24.446096"
     y="0" />
  <rect
     x="58.446098"
     y="2"
     width="22"
     height="4"
     fill="#08080d"
     id="rect2" />
  <rect
     x="54.446098"
     y="6"
     width="8"
     height="4"
     fill="#08080d"
     id="rect3" />
  <rect
     x="62.446098"
     y="6"
     width="18"
     height="4"
     fill="#8f9995"
     id="rect4" />
  <rect
     x="80.446098"
     y="6"
     width="6"
     height="4"
     fill="#08080d"
     id="rect5" />
  <rect
     x="50.446098"
     y="10"
     width="6"
     height="4"
     fill="#08080d"
     id="rect6" />
  <rect
     x="56.446098"
     y="10"
     width="10"
     height="4"
     fill="#6f7b78"
     id="rect7" />
  <rect
     x="66.446098"
     y="10"
     width="14"
     height="4"
     fill="#c4cac5"
     id="rect8" />
  <rect
     x="80.446098"
     y="10"
     width="6"
     height="4"
     fill="#d7dad6"
     id="rect9" />
  <rect
     x="86.446098"
     y="10"
     width="4"
     height="4"
     fill="#08080d"
     id="rect10" />
  <rect
     x="48.446098"
     y="14"
     width="6"
     height="4"
     fill="#08080d"
     id="rect11" />
  <rect
     x="54.446098"
     y="14"
     width="10"
     height="4"
     fill="#6f7b78"
     id="rect12" />
  <rect
     x="64.446098"
     y="14"
     width="14"
     height="4"
     fill="#d7dad6"
     id="rect13" />
  <rect
     x="78.446098"
     y="14"
     width="6"
     height="4"
     fill="#b8bfba"
     id="rect14" />
  <rect
     x="84.446098"
     y="14"
     width="4"
     height="4"
     fill="#08080d"
     id="rect15" />
  <rect
     x="88.446098"
     y="14"
     width="6"
     height="4"
     fill="#e8d38a"
     id="rect16" />
  <rect
     x="48.446098"
     y="18"
     width="4"
     height="4"
     fill="#08080d"
     id="rect17" />
  <rect
     x="52.446098"
     y="18"
     width="10"
     height="4"
     fill="#245c31"
     id="rect18" />
  <rect
     x="62.446098"
     y="18"
     width="10"
     height="4"
     fill="#d7dad6"
     id="rect19" />
  <rect
     x="72.446098"
     y="18"
     width="8"
     height="4"
     fill="#b8bfba"
     id="rect20" />
  <rect
     x="80.446098"
     y="18"
     width="4"
     height="4"
     fill="#08080d"
     id="rect21" />
  <rect
     x="84.446098"
     y="18"
     width="8"
     height="4"
     fill="#d6b967"
     id="rect22" />
  <rect
     x="46.446098"
     y="22"
     width="4"
     height="4"
     fill="#08080d"
     id="rect23" />
  <rect
     x="50.446098"
     y="22"
     width="10"
     height="4"
     fill="#245c31"
     id="rect24" />
  <rect
     x="60.446098"
     y="22"
     width="12"
     height="4"
     fill="#2f8a3e"
     id="rect25" />
  <rect
     x="72.446098"
     y="22"
     width="10"
     height="4"
     fill="#63aa45"
     id="rect26" />
  <rect
     x="82.446098"
     y="22"
     width="6"
     height="4"
     fill="#3f8f3d"
     id="rect27" />
  <rect
     x="88.446098"
     y="22"
     width="4"
     height="4"
     fill="#08080d"
     id="rect28" />
  <rect
     x="42.446098"
     y="26"
     width="4"
     height="4"
     fill="#08080d"
     id="rect29" />
  <rect
     x="46.446098"
     y="26"
     width="10"
     height="4"
     fill="#7f1f32"
     id="rect30" />
  <rect
     x="56.446098"
     y="26"
     width="8"
     height="4"
     fill="#1d4f2b"
     id="rect31" />
  <rect
     x="64.446098"
     y="26"
     width="12"
     height="4"
     fill="#2f8a3e"
     id="rect32" />
  <rect
     x="76.446098"
     y="26"
     width="10"
     height="4"
     fill="#74c365"
     id="rect33" />
  <rect
     x="86.446098"
     y="26"
     width="6"
     height="4"
     fill="#08080d"
     id="rect34" />
  <rect
     x="34.446098"
     y="30"
     width="12"
     height="4"
     fill="#08080d"
     id="rect35" />
  <rect
     x="46.446098"
     y="30"
     width="8"
     height="4"
     fill="#9f2639"
     id="rect36" />
  <rect
     x="54.446098"
     y="30"
     width="8"
     height="4"
     fill="#c63b46"
     id="rect37" />
  <rect
     x="62.446098"
     y="30"
     width="8"
     height="4"
     fill="#1d4f2b"
     id="rect38" />
  <rect
     x="70.446098"
     y="30"
     width="10"
     height="4"
     fill="#43a047"
     id="rect39" />
  <rect
     x="80.446098"
     y="30"
     width="8"
     height="4"
     fill="#5bb14e"
     id="rect40" />
  <rect
     x="88.446098"
     y="30"
     width="4"
     height="4"
     fill="#08080d"
     id="rect41" />
  <rect
     x="26.446096"
     y="34"
     width="8"
     height="4"
     fill="#08080d"
     id="rect42" />
  <rect
     x="34.446098"
     y="34"
     width="12"
     height="4"
     fill="#7f1f32"
     id="rect43" />
  <rect
     x="46.446098"
     y="34"
     width="10"
     height="4"
     fill="#c63b46"
     id="rect44" />
  <rect
     x="56.446098"
     y="34"
     width="8"
     height="4"
     fill="#9f2639"
     id="rect45" />
  <rect
     x="64.446098"
     y="34"
     width="8"
     height="4"
     fill="#1b6f36"
     id="rect46" />
  <rect
     x="72.446098"
     y="34"
     width="10"
     height="4"
     fill="#2f8a3e"
     id="rect47" />
  <rect
     x="82.446098"
     y="34"
     width="6"
     height="4"
     fill="#1f6330"
     id="rect48" />
  <rect
     x="88.446098"
     y="34"
     width="4"
     height="4"
     fill="#08080d"
     id="rect49" />
  <rect
     x="24.446096"
     y="38"
     width="8"
     height="4"
     fill="#08080d"
     id="rect50" />
  <rect
     x="32.446098"
     y="38"
     width="10"
     height="4"
     fill="#9f2639"
     id="rect51" />
  <rect
     x="42.446098"
     y="38"
     width="12"
     height="4"
     fill="#c63b46"
     id="rect52" />
  <rect
     x="54.446098"
     y="38"
     width="8"
     height="4"
     fill="#7f1f32"
     id="rect53" />
  <rect
     x="62.446098"
     y="38"
     width="8"
     height="4"
     fill="#1b6f36"
     id="rect54" />
  <rect
     x="70.446098"
     y="38"
     width="10"
     height="4"
     fill="#2f8a3e"
     id="rect55" />
  <rect
     x="80.446098"
     y="38"
     width="6"
     height="4"
     fill="#08080d"
     id="rect56" />
  <rect
     x="30.446096"
     y="42"
     width="8"
     height="4"
     fill="#08080d"
     id="rect57" />
  <rect
     x="38.446098"
     y="42"
     width="12"
     height="4"
     fill="#7f1f32"
     id="rect58" />
  <rect
     x="50.446098"
     y="42"
     width="10"
     height="4"
     fill="#9f2639"
     id="rect59" />
  <rect
     x="60.446098"
     y="42"
     width="8"
     height="4"
     fill="#1f6330"
     id="rect60" />
  <rect
     x="68.446098"
     y="42"
     width="10"
     height="4"
     fill="#2f8a3e"
     id="rect61" />
  <rect
     x="78.446098"
     y="42"
     width="4"
     height="4"
     fill="#08080d"
     id="rect62" />
  <rect
     x="38.446098"
     y="46"
     width="8"
     height="4"
     fill="#08080d"
     id="rect63" />
  <rect
     x="46.446098"
     y="46"
     width="10"
     height="4"
     fill="#7f1f32"
     id="rect64" />
  <rect
     x="56.446098"
     y="46"
     width="8"
     height="4"
     fill="#1f6330"
     id="rect65" />
  <rect
     x="64.446098"
     y="46"
     width="10"
     height="4"
     fill="#2f8a3e"
     id="rect66" />
  <rect
     x="74.446098"
     y="46"
     width="4"
     height="4"
     fill="#08080d"
     id="rect67" />
  <rect
     x="54.446098"
     y="50"
     width="4"
     height="4"
     fill="#08080d"
     id="rect68" />
  <rect
     x="58.446098"
     y="50"
     width="10"
     height="4"
     fill="#1f6330"
     id="rect69" />
  <rect
     x="68.446098"
     y="50"
     width="4"
     height="4"
     fill="#08080d"
     id="rect70" />
  <rect
     x="58.446098"
     y="54"
     width="4"
     height="4"
     fill="#08080d"
     id="rect71" />
  <rect
     x="62.446098"
     y="54"
     width="8"
     height="4"
     fill="#2f8a3e"
     id="rect72" />
  <rect
     x="70.446098"
     y="54"
     width="4"
     height="4"
     fill="#08080d"
     id="rect73" />
  <rect
     x="62.446098"
     y="58"
     width="4"
     height="4"
     fill="#08080d"
     id="rect74" />
  <rect
     x="70.446098"
     y="58"
     width="4"
     height="4"
     fill="#08080d"
     id="rect75" />
  <rect
     x="58.446098"
     y="62"
     width="8"
     height="4"
     fill="#08080d"
     id="rect76" />
  <rect
     x="70.446098"
     y="62"
     width="8"
     height="4"
     fill="#08080d"
     id="rect77" />
  <rect
     x="74.446098"
     y="16"
     width="2"
     height="2"
     fill="#08080d"
     id="rect78" />
  <rect
     x="66.446098"
     y="10"
     width="8"
     height="2"
     fill="#eef0ea"
     id="rect79" />
  <rect
     x="74.446098"
     y="24"
     width="8"
     height="2"
     fill="#8edb6d"
     id="rect80" />
  <rect
     x="60.446098"
     y="26"
     width="8"
     height="2"
     fill="#b65cff"
     opacity="0.48"
     id="rect81" />
  <rect
     x="42.446098"
     y="32"
     width="14"
     height="2"
     fill="#e64e5d"
     id="rect82" />
  <rect
     x="32.446098"
     y="36"
     width="12"
     height="2"
     fill="#d44855"
     id="rect83" />
  <rect
     x="0"
     y="38.003719"
     width="33.018585"
     height="4"
     fill="#9f2639"
     id="rect51-9"
     style="stroke-width:1.8171" />
  <rect
     x="13.085502"
     y="34.434944"
     width="19.903345"
     height="4"
     fill="#9f2639"
     id="rect51-9-8"
     style="stroke-width:1.41079" />
  <rect
     x="5.6802979"
     y="40.609665"
     width="33.018585"
     height="4"
     fill="#9f2639"
     id="rect51-9-2"
     style="stroke-width:1.8171" />
  <rect
     x="29.933084"
     y="27.315985"
     width="35.390335"
     height="13.36803"
     fill="#1b6f36"
     id="rect46-9"
     style="stroke-width:3.84504" />
  <rect
     x="28.69145"
     y="25.828997"
     width="24.148697"
     height="4.7137542"
     fill="#1b6f36"
     id="rect46-9-2"
     style="fill:#2839a9;fill-opacity:1;stroke-width:1.88605" />
  <rect
     x="14.118959"
     y="44.468403"
     width="33.018585"
     height="4"
     fill="#9f2639"
     id="rect51-9-2-2"
     style="stroke-width:1.8171" />
  <rect
     x="29.018587"
     y="32.018589"
     width="34.58736"
     height="11.405204"
     fill="#1b6f36"
     id="rect46-9-8"
     style="stroke-width:3.51103" />
  <rect
     x="25.858736"
     y="29.070633"
     width="19.241634"
     height="4.7137542"
     fill="#1b6f36"
     id="rect46-9-2-1"
     style="fill:#2839a9;fill-opacity:1;stroke-width:1.68356" />
  <rect
     x="22.029739"
     y="33.732342"
     width="17.10037"
     height="3.1078062"
     fill="#1b6f36"
     id="rect46-9-2-11"
     style="fill:#2839a9;fill-opacity:1;stroke-width:1.2887" />
  <rect
     x="24.390335"
     y="36.736061"
     width="8"
     height="4"
     fill="#1b6f36"
     id="rect46-2" />
</svg>
